<svg width="204" height="48" viewBox="0 0 204 48" fill="none" xmlns="http://www.w3.org/2000/svg">
<path d="M65.9432 20.125C65.8371 19.1326 65.3902 18.3598 64.6023 17.8068C63.822 17.2538 62.8068 16.9773 61.5568 16.9773C60.678 16.9773 59.9242 17.1098 59.2955 17.375C58.6667 17.6402 58.1856 18 57.8523 18.4545C57.5189 18.9091 57.3485 19.428 57.3409 20.0114C57.3409 20.4962 57.4508 20.9167 57.6705 21.2727C57.8977 21.6288 58.2045 21.9318 58.5909 22.1818C58.9773 22.4242 59.4053 22.6288 59.875 22.7955C60.3447 22.9621 60.8182 23.1023 61.2955 23.2159L63.4773 23.7614C64.3561 23.9659 65.2008 24.2424 66.0114 24.5909C66.8295 24.9394 67.5606 25.3788 68.2045 25.9091C68.8561 26.4394 69.3712 27.0795 69.75 27.8295C70.1288 28.5795 70.3182 29.4583 70.3182 30.4659C70.3182 31.8295 69.9697 33.0303 69.2727 34.0682C68.5758 35.0985 67.5682 35.9053 66.25 36.4886C64.9394 37.0644 63.3523 37.3523 61.4886 37.3523C59.678 37.3523 58.1061 37.072 56.7727 36.5114C55.447 35.9508 54.4091 35.1326 53.6591 34.0568C52.9167 32.9811 52.5152 31.6705 52.4545 30.125H56.6023C56.6629 30.9356 56.9129 31.6098 57.3523 32.1477C57.7917 32.6856 58.3636 33.0871 59.0682 33.3523C59.7803 33.6174 60.5758 33.75 61.4545 33.75C62.3712 33.75 63.1742 33.6136 63.8636 33.3409C64.5606 33.0606 65.1061 32.6742 65.5 32.1818C65.8939 31.6818 66.0947 31.0985 66.1023 30.4318C66.0947 29.8258 65.9167 29.3258 65.5682 28.9318C65.2197 28.5303 64.7311 28.197 64.1023 27.9318C63.4811 27.6591 62.7538 27.4167 61.9205 27.2045L59.2727 26.5227C57.3561 26.0303 55.8409 25.2841 54.7273 24.2841C53.6212 23.2765 53.0682 21.9394 53.0682 20.2727C53.0682 18.9015 53.4394 17.7008 54.1818 16.6705C54.9318 15.6402 55.9508 14.8409 57.2386 14.2727C58.5265 13.697 59.9848 13.4091 61.6136 13.4091C63.2652 13.4091 64.7121 13.697 65.9545 14.2727C67.2045 14.8409 68.1856 15.6326 68.8977 16.6477C69.6098 17.6553 69.9773 18.8144 70 20.125H65.9432ZM77.4972 37L72.5653 19.5455H76.7585L79.8267 31.8182H79.9858L83.1222 19.5455H87.2699L90.4062 31.75H90.5767L93.5994 19.5455H97.804L92.8608 37H88.5767L85.304 25.2045H85.0653L81.7926 37H77.4972ZM100.676 37V19.5455H104.79V37H100.676ZM102.744 17.0682C102.093 17.0682 101.532 16.8523 101.062 16.4205C100.593 15.9811 100.358 15.4545 100.358 14.8409C100.358 14.2197 100.593 13.6932 101.062 13.2614C101.532 12.822 102.093 12.6023 102.744 12.6023C103.403 12.6023 103.964 12.822 104.426 13.2614C104.896 13.6932 105.131 14.2197 105.131 14.8409C105.131 15.4545 104.896 15.9811 104.426 16.4205C103.964 16.8523 103.403 17.0682 102.744 17.0682ZM117.861 19.5455V22.7273H107.543V19.5455H117.861ZM110.122 37V17.8977C110.122 16.7235 110.365 15.7462 110.849 14.9659C111.342 14.1856 112.001 13.6023 112.827 13.2159C113.652 12.8295 114.569 12.6364 115.577 12.6364C116.289 12.6364 116.921 12.6932 117.474 12.8068C118.027 12.9205 118.437 13.0227 118.702 13.1136L117.884 16.2955C117.709 16.2424 117.49 16.1894 117.224 16.1364C116.959 16.0758 116.664 16.0455 116.338 16.0455C115.573 16.0455 115.031 16.2311 114.713 16.6023C114.402 16.9659 114.247 17.4886 114.247 18.1705V37H110.122ZM129.798 19.5455V22.7273H119.764V19.5455H129.798ZM122.241 15.3636H126.355V31.75C126.355 32.303 126.438 32.7273 126.605 33.0227C126.779 33.3106 127.007 33.5076 127.287 33.6136C127.567 33.7197 127.878 33.7727 128.219 33.7727C128.476 33.7727 128.711 33.7538 128.923 33.7159C129.143 33.678 129.31 33.6439 129.423 33.6136L130.116 36.8295C129.897 36.9053 129.582 36.9886 129.173 37.0795C128.772 37.1705 128.279 37.2235 127.696 37.2386C126.666 37.2689 125.738 37.1136 124.912 36.7727C124.086 36.4242 123.431 35.8864 122.946 35.1591C122.469 34.4318 122.234 33.5227 122.241 32.4318V15.3636Z" fill="#0B0A0A"/>
<path d="M133.795 13.7273H138.955L145.864 30.5909H146.136L153.045 13.7273H158.205V37H154.159V21.0114H153.943L147.511 36.9318H144.489L138.057 20.9773H137.841V37H133.795V13.7273ZM167.636 37.3523C166.53 37.3523 165.534 37.1553 164.648 36.7614C163.769 36.3598 163.072 35.7689 162.557 34.9886C162.049 34.2083 161.795 33.2462 161.795 32.1023C161.795 31.1174 161.977 30.303 162.341 29.6591C162.705 29.0152 163.201 28.5 163.83 28.1136C164.458 27.7273 165.167 27.4356 165.955 27.2386C166.75 27.0341 167.572 26.8864 168.42 26.7955C169.443 26.6894 170.273 26.5947 170.909 26.5114C171.545 26.4205 172.008 26.2841 172.295 26.1023C172.591 25.9129 172.739 25.6212 172.739 25.2273V25.1591C172.739 24.303 172.485 23.6402 171.977 23.1705C171.47 22.7008 170.739 22.4659 169.784 22.4659C168.777 22.4659 167.977 22.6856 167.386 23.125C166.803 23.5644 166.409 24.0833 166.205 24.6818L162.364 24.1364C162.667 23.0758 163.167 22.1894 163.864 21.4773C164.561 20.7576 165.413 20.2197 166.42 19.8636C167.428 19.5 168.542 19.3182 169.761 19.3182C170.602 19.3182 171.439 19.4167 172.273 19.6136C173.106 19.8106 173.867 20.1364 174.557 20.5909C175.246 21.0379 175.799 21.6477 176.216 22.4205C176.64 23.1932 176.852 24.1591 176.852 25.3182V37H172.898V34.6023H172.761C172.511 35.0871 172.159 35.5417 171.705 35.9659C171.258 36.3826 170.693 36.7197 170.011 36.9773C169.337 37.2273 168.545 37.3523 167.636 37.3523ZM168.705 34.3295C169.53 34.3295 170.246 34.1667 170.852 33.8409C171.458 33.5076 171.924 33.0682 172.25 32.5227C172.583 31.9773 172.75 31.3826 172.75 30.7386V28.6818C172.621 28.7879 172.402 28.8864 172.091 28.9773C171.788 29.0682 171.447 29.1477 171.068 29.2159C170.689 29.2841 170.314 29.3447 169.943 29.3977C169.572 29.4508 169.25 29.4962 168.977 29.5341C168.364 29.6174 167.814 29.7538 167.33 29.9432C166.845 30.1326 166.462 30.3977 166.182 30.7386C165.902 31.072 165.761 31.5038 165.761 32.0341C165.761 32.7917 166.038 33.3636 166.591 33.75C167.144 34.1364 167.848 34.3295 168.705 34.3295ZM180.989 37V19.5455H184.977V22.4545H185.159C185.477 21.447 186.023 20.6705 186.795 20.125C187.576 19.572 188.466 19.2955 189.466 19.2955C189.693 19.2955 189.947 19.3068 190.227 19.3295C190.515 19.3447 190.754 19.3712 190.943 19.4091V23.1932C190.769 23.1326 190.492 23.0795 190.114 23.0341C189.742 22.9811 189.383 22.9545 189.034 22.9545C188.284 22.9545 187.61 23.1174 187.011 23.4432C186.42 23.7614 185.955 24.2045 185.614 24.7727C185.273 25.3409 185.102 25.9962 185.102 26.7386V37H180.989ZM203.33 19.5455V22.7273H193.295V19.5455H203.33ZM195.773 15.3636H199.886V31.75C199.886 32.303 199.97 32.7273 200.136 33.0227C200.311 33.3106 200.538 33.5076 200.818 33.6136C201.098 33.7197 201.409 33.7727 201.75 33.7727C202.008 33.7727 202.242 33.7538 202.455 33.7159C202.674 33.678 202.841 33.6439 202.955 33.6136L203.648 36.8295C203.428 36.9053 203.114 36.9886 202.705 37.0795C202.303 37.1705 201.811 37.2235 201.227 37.2386C200.197 37.2689 199.269 37.1136 198.443 36.7727C197.617 36.4242 196.962 35.8864 196.477 35.1591C196 34.4318 195.765 33.5227 195.773 32.4318V15.3636Z" fill="#FF6F00"/>
<path d="M38.3262 12.1772C35.1934 12.1772 32.6537 14.9458 32.6537 18.3618C32.6537 18.9267 32.6537 26.5113 32.6537 26.5113C32.6537 27.8624 31.6488 28.9572 30.4094 28.9572H13.5898C12.3511 28.9572 11.3462 27.8624 11.3462 26.5113C11.3462 26.5113 11.3462 18.9267 11.3462 18.3618C11.3462 14.9458 8.80654 12.1772 5.67309 12.1772C2.53956 12.1772 0 14.9458 0 18.3618C0 20.5647 1.05724 22.499 2.64808 23.5945C2.94133 23.7967 3.27611 24.1149 3.27611 27.4141C3.27611 30.7141 3.27611 33.0973 3.27611 33.0973C3.27611 36.1593 5.55398 38.6417 8.36262 38.6417H35.6373C38.4461 38.6417 40.7232 36.1592 40.7232 33.0973C40.7232 33.0973 40.7232 30.7141 40.7232 27.4141C40.7232 24.1149 41.0579 23.7967 41.3512 23.5945C42.9428 22.499 44 20.5646 44 18.3618C44 14.9458 41.4597 12.1772 38.3262 12.1772Z" fill="#FF6F00"/>
<path d="M8.73026 48H11.4177L13.4324 40.3111H9.29001L8.73026 48Z" fill="#FF6F00"/>
<path d="M30.5676 40.3111L32.5821 48H35.2691L34.7093 40.3111H30.5676Z" fill="#FF6F00"/>
<path d="M12.9296 18.3618V26.5113C12.9296 26.9084 13.2255 27.2318 13.5898 27.2318H30.4095C30.7737 27.2318 31.0704 26.9084 31.0704 26.5113V18.3618C31.0704 14.5801 33.5176 11.4115 36.7762 10.6349V7.33866C36.7762 3.28613 33.7626 0 30.0446 0H13.9554C10.2366 0 7.22377 3.28613 7.22377 7.33856V10.6348C10.4817 11.4115 12.9296 14.58 12.9296 18.3618ZM26.826 8.62978C27.4581 8.62978 27.9696 9.18816 27.9696 9.87647C27.9696 10.5648 27.4581 11.1224 26.826 11.1224C26.1953 11.1224 25.6831 10.5648 25.6831 9.87647C25.6831 9.18825 26.1953 8.62978 26.826 8.62978ZM26.826 18.1223C27.4581 18.1223 27.9696 18.6807 27.9696 19.369C27.9696 20.0573 27.4581 20.6157 26.826 20.6157C26.1953 20.6157 25.6831 20.0573 25.6831 19.369C25.6831 18.6808 26.1953 18.1223 26.826 18.1223ZM17.4155 8.62978C18.0463 8.62978 18.5584 9.18816 18.5584 9.87647C18.5584 10.5648 18.0462 11.1224 17.4155 11.1224C16.7835 11.1224 16.272 10.5648 16.272 9.87647C16.272 9.18825 16.7835 8.62978 17.4155 8.62978ZM17.4155 18.1223C18.0463 18.1223 18.5584 18.6807 18.5584 19.369C18.5584 20.0573 18.0462 20.6157 17.4155 20.6157C16.7835 20.6157 16.272 20.0573 16.272 19.369C16.272 18.6808 16.7835 18.1223 17.4155 18.1223Z" fill="#FF6F00"/>
</svg>
